<svg width="26" height="28" viewBox="0 0 26 28" fill="none" xmlns="http://www.w3.org/2000/svg">
<path d="M13 14C14.7239 14 16.3772 13.2888 17.5962 12.023C18.8152 10.7571 19.5 9.04021 19.5 7.25C19.5 5.45979 18.8152 3.7429 17.5962 2.47703C16.3772 1.21116 14.7239 0.5 13 0.5C11.2761 0.5 9.62279 1.21116 8.40381 2.47703C7.18482 3.7429 6.5 5.45979 6.5 7.25C6.5 9.04021 7.18482 10.7571 8.40381 12.023C9.62279 13.2888 11.2761 14 13 14ZM17.3333 7.25C17.3333 8.44347 16.8768 9.58807 16.0641 10.432C15.2515 11.2759 14.1493 11.75 13 11.75C11.8507 11.75 10.7485 11.2759 9.93587 10.432C9.12321 9.58807 8.66667 8.44347 8.66667 7.25C8.66667 6.05653 9.12321 4.91193 9.93587 4.06802C10.7485 3.22411 11.8507 2.75 13 2.75C14.1493 2.75 15.2515 3.22411 16.0641 4.06802C16.8768 4.91193 17.3333 6.05653 17.3333 7.25ZM26 25.25C26 27.5 23.8333 27.5 23.8333 27.5H2.16667C2.16667 27.5 0 27.5 0 25.25C0 23 2.16667 16.25 13 16.25C23.8333 16.25 26 23 26 25.25ZM23.8333 25.241C23.8312 24.6875 23.4997 23.0225 22.0307 21.497C20.618 20.03 17.9595 18.5 13 18.5C8.0405 18.5 5.382 20.03 3.96933 21.497C2.50033 23.0225 2.171 24.6875 2.16667 25.241H23.8333Z" fill="black"/>
</svg>
