<svg width="19" height="32" viewBox="0 0 19 32" fill="none" xmlns="http://www.w3.org/2000/svg">
<path d="M1.31209 1.12411C1.0613 1.35851 0.920898 1.67319 0.920898 2.00086C0.920898 2.32854 1.0613 2.64322 1.31209 2.87761L15.322 16L1.31209 29.1197C1.0613 29.3541 0.920898 29.6688 0.920898 29.9965C0.920898 30.3242 1.0613 30.6388 1.31209 30.8732C1.43398 30.9875 1.57971 31.0784 1.74068 31.1404C1.90166 31.2025 2.07461 31.2344 2.24934 31.2344C2.42406 31.2344 2.59702 31.2025 2.75799 31.1404C2.91897 31.0784 3.0647 30.9875 3.18659 30.8732L18.0848 16.9161C18.3465 16.671 18.4929 16.3423 18.4929 16C18.4929 15.6577 18.3465 15.329 18.0848 15.0839L3.18659 1.12674C3.0647 1.01244 2.91897 0.921588 2.75799 0.859556C2.59702 0.797523 2.42406 0.765564 2.24934 0.765564C2.07461 0.765564 1.90166 0.797523 1.74068 0.859556C1.57971 0.921588 1.43398 1.01244 1.31209 1.12674V1.12411Z" fill="black"/>
</svg>
