<svg width="28" height="30" viewBox="0 0 28 30" fill="none" xmlns="http://www.w3.org/2000/svg">
<path d="M27.7724 8.32034C27.6921 8.19821 27.5857 8.09853 27.4619 8.02969C27.3382 7.96085 27.2009 7.92487 27.0615 7.92478H8.49137L7.08568 2.73103C6.53443 0.685869 5.22453 0.465088 4.68728 0.465088H0.939215C0.458812 0.465088 0.0703125 0.881807 0.0703125 1.39603C0.0703125 1.91024 0.45925 2.32693 0.939187 2.32693H4.68681C4.80537 2.32693 5.16719 2.32693 5.41396 3.24053L10.2497 22.2816C10.3547 22.6833 10.6963 22.9608 11.0861 22.9608H22.8977C23.2644 22.9608 23.5916 22.7147 23.7155 22.3449L27.8787 9.17065C27.9745 8.88519 27.9347 8.56737 27.7724 8.32034H27.7724ZM22.2863 21.0995H11.7456L8.97975 9.78712H25.8261L22.2863 21.0995ZM20.563 24.8476C19.3546 24.8476 18.3755 25.8966 18.3755 27.1913C18.3755 28.486 19.3546 29.5351 20.563 29.5351C21.7714 29.5351 22.7505 28.486 22.7505 27.1913C22.7505 25.8966 21.7714 24.8476 20.563 24.8476ZM12.688 24.8476C11.4796 24.8476 10.5005 25.8966 10.5005 27.1913C10.5005 28.486 11.4796 29.5351 12.688 29.5351C13.8964 29.5351 14.8755 28.486 14.8755 27.1913C14.8755 25.8966 13.8964 24.8476 12.688 24.8476Z" fill="black"/>
</svg>
