<svg width="22" height="20" viewBox="0 0 22 20" fill="none" xmlns="http://www.w3.org/2000/svg">
  <path d="M11.2148 11.25C10.5659 11.25 9.93148 11.0667 9.39188 10.7233C8.85228 10.38 8.43172 9.89191 8.18337 9.32089C7.93502 8.74987 7.87004 8.12154 7.99664 7.51534C8.12325 6.90915 8.43576 6.35233 8.89465 5.91529C9.35354 5.47825 9.93821 5.18063 10.5747 5.06005C11.2112 4.93947 11.871 5.00135 12.4705 5.23788C13.0701 5.4744 13.5826 5.87494 13.9431 6.38884C14.3037 6.90275 14.4961 7.50694 14.4961 8.125C14.4951 8.9535 14.149 9.74778 13.5339 10.3336C12.9188 10.9195 12.0848 11.249 11.2148 11.25ZM11.2148 6.25C10.8255 6.25 10.4448 6.35997 10.1211 6.566C9.79731 6.77202 9.54497 7.06486 9.39596 7.40747C9.24695 7.75008 9.20796 8.12708 9.28392 8.4908C9.35989 8.85451 9.54739 9.1886 9.82273 9.45083C10.0981 9.71305 10.4489 9.89163 10.8308 9.96397C11.2127 10.0363 11.6085 9.99919 11.9683 9.85728C12.328 9.71536 12.6355 9.47504 12.8518 9.1667C13.0681 8.85835 13.1836 8.49584 13.1836 8.125C13.1831 7.62787 12.9755 7.15125 12.6064 6.79972C12.2373 6.4482 11.7368 6.2505 11.2148 6.25Z" fill="black" />
  <path d="M11.2149 18.75L5.67873 12.5319C5.6018 12.4385 5.52567 12.3445 5.45035 12.25C4.50468 11.0636 3.99381 9.61452 3.9961 8.125C3.9961 6.30164 4.75665 4.55295 6.11042 3.26364C7.4642 1.97433 9.30032 1.25 11.2149 1.25C13.1294 1.25 14.9655 1.97433 16.3193 3.26364C17.6731 4.55295 18.4336 6.30164 18.4336 8.125C18.4359 9.61384 17.9253 11.0623 16.98 12.2481L16.9794 12.25C16.9794 12.25 16.7825 12.4963 16.7529 12.5294L11.2149 18.75ZM6.49838 11.4969C6.49838 11.4969 6.65129 11.6894 6.68607 11.7306L11.2149 16.8175L15.7495 11.7237C15.7784 11.6894 15.932 11.4956 15.9326 11.495C16.7051 10.5257 17.1226 9.34189 17.1211 8.125C17.1211 6.63316 16.4988 5.20242 15.3912 4.14752C14.2836 3.09263 12.7813 2.5 11.2149 2.5C9.64842 2.5 8.14614 3.09263 7.0385 4.14752C5.93087 5.20242 5.3086 6.63316 5.3086 8.125C5.30722 9.34265 5.72517 10.5271 6.49838 11.4969Z" fill="black" />
</svg>