<svg width="19" height="20" viewBox="0 0 19 20" fill="none" xmlns="http://www.w3.org/2000/svg">
<path d="M17.3151 1.2168H1.68609C1.15077 1.2168 0.716797 1.65077 0.716797 2.18609V17.8151C0.716797 18.3504 1.15077 18.7844 1.68609 18.7844H17.3151C17.8504 18.7844 18.2844 18.3504 18.2844 17.8151V2.18609C18.2844 1.65077 17.8504 1.2168 17.3151 1.2168Z" fill="#3D5A98"/>
<path d="M12.8366 18.7829V11.98H15.1196L15.461 9.32892H12.8366V7.63673C12.8366 6.86931 13.0504 6.34532 14.1503 6.34532H15.5545V3.97032C14.8745 3.89959 14.1912 3.86589 13.5076 3.86939C11.4859 3.86939 10.0935 5.10142 10.0935 7.374V9.32892H7.81055V11.98H10.0935V18.7829H12.8366Z" fill="white"/>
</svg>
