<svg width="19" height="16" viewBox="0 0 19 16" fill="none" xmlns="http://www.w3.org/2000/svg">
<path d="M17.1667 10.9167C16.0167 10.9167 14.7708 10.75 13.7167 10.4167H13.4292C13.1417 10.4167 12.95 10.5 12.7583 10.6667L10.65 12.5C7.96667 11.25 5.66667 9.33333 4.325 7L6.43333 5.16667C6.72083 4.91667 6.81667 4.58333 6.625 4.33333C6.3375 3.41667 6.14583 2.33333 6.14583 1.33333C6.14583 0.916667 5.66667 0.5 5.1875 0.5H1.83333C1.35417 0.5 0.875 0.916667 0.875 1.33333C0.875 9.16667 8.15833 15.5 17.1667 15.5C17.6458 15.5 18.125 15.0833 18.125 14.6667V11.75C18.125 11.3333 17.6458 10.9167 17.1667 10.9167ZM2.79167 2.16667H4.22917C4.325 2.91667 4.51667 3.66667 4.70833 4.33333L3.55833 5.33333C3.175 4.33333 2.8875 3.25 2.79167 2.16667ZM16.2083 13.8333C14.9625 13.75 13.7167 13.5 12.5667 13.1667L13.7167 12.1667C14.4833 12.3333 15.3458 12.5 16.2083 12.5V13.8333Z" fill="black"/>
</svg>
