<svg width="18" height="18" viewBox="0 0 18 18" fill="none" xmlns="http://www.w3.org/2000/svg">
<path d="M1.2075 1.5825C2.28484e-07 2.8015 0 4.75075 0 8.655V9.345C0 13.2435 2.28484e-07 15.1927 1.2075 16.4175C2.4265 17.625 4.37575 17.625 8.28 17.625H8.97C12.8685 17.625 14.8177 17.625 16.0425 16.4175C17.25 15.1985 17.25 13.2492 17.25 9.345V8.655C17.25 4.7565 17.25 2.80725 16.0425 1.5825C14.8235 0.375 12.8742 0.375 8.97 0.375H8.28C4.3815 0.375 2.43225 0.375 1.2075 1.5825ZM2.9095 5.62475H4.8875C4.95075 8.91375 6.39975 10.3052 7.54975 10.5927V5.62475H9.407V8.4595C10.5397 8.33875 11.7358 7.045 12.1383 5.619H13.9897C13.8388 6.35719 13.5373 7.05631 13.104 7.67268C12.6706 8.28905 12.1148 8.80941 11.4713 9.20125C12.1895 9.55858 12.8237 10.0642 13.3322 10.6846C13.8406 11.3051 14.2117 12.0263 14.421 12.8007H12.3797C11.9427 11.438 10.8502 10.38 9.407 10.2362V12.8007H9.177C5.244 12.8007 3.0015 10.1097 2.9095 5.62475Z" fill="black"/>
</svg>
